<?xml version="1.0" encoding="utf-8"?>
<svg version="1.1" id="group" xmlns="http://www.w3.org/2000/svg" xmlns:xlink="http://www.w3.org/1999/xlink" x="0px" y="0px"
	 viewBox="0 0 1024 1024" style="enable-background:new 0 0 1024 1024;" xml:space="preserve">
<style type="text/css">
	.st0{fill:#EEEEEE;}
</style>
<g>
	<path class="st0" d="M545.1,461.8h88.2c3.5,0,5.9-3.5,4.7-6.7l-58.7-158.5c-1.3-4.9-4-9.1-8-12.7c-4-3.5-9.6-5.3-16.7-5.3h-85.3
		c-7.1,0-12.7,1.8-16.7,5.3c-4,3.6-6.7,7.8-8,12.7L286,725.3c-0.5,1.8-0.7,3.8-0.7,6c0,3.6,1.3,6.8,4,9.7s6,4.3,10,4.3h69.3
		c6.7,0,11.5-1.5,14.7-4.7c3.1-3.1,5.1-6,6-8.7l26.2-68.2c1.5-3.9,5.2-6.4,9.3-6.4h63.8c2.8,0,5-2.2,5-5l-0.3-76c0-2.8-2.2-5-5-5
		l-38.5,0c-3.5,0-5.9-3.4-4.7-6.7l62.2-172.2c1.6-4.4,7.8-4.4,9.4,0l23.7,66.1C541.1,460.5,543,461.8,545.1,461.8z"/>
	<path class="st0" d="M738,725.3l-82.7-223.5c-0.7-2-2.6-3.3-4.7-3.3h-88.8c-3.5,0-5.9,3.4-4.7,6.7l21.2,59.4
		c1.2,3.3-1.2,6.7-4.7,6.7h-38.2c-2.8,0-5,2.2-5,5v76c0,2.8,2.2,5,5,5h63.8c4.1,0,7.8,2.5,9.3,6.4l26.2,68.2c0.9,2.7,2.9,5.6,6,8.7
		c3.1,3.1,8,4.7,14.7,4.7h69.3c4,0,7.3-1.4,10-4.3c2.7-2.9,4-6.1,4-9.7C738.6,729.1,738.4,727.1,738,725.3z"/>
</g>
</svg>
